<?xml version="1.0" encoding="utf-8"?>
<!-- Generator: Adobe Illustrator 16.0.0, SVG Export Plug-In . SVG Version: 6.00 Build 0)  -->
<!DOCTYPE svg PUBLIC "-//W3C//DTD SVG 1.1//EN" "http://www.w3.org/Graphics/SVG/1.1/DTD/svg11.dtd">
<svg version="1.1" id="Ebene_1" xmlns="http://www.w3.org/2000/svg" xmlns:xlink="http://www.w3.org/1999/xlink" x="0px" y="0px"
	 width="240.5px" height="227.5px" viewBox="135 -50.5 240.5 227.5" enable-background="new 135 -50.5 240.5 227.5"
	 xml:space="preserve">
<path fill="none" stroke="#000000" stroke-width="0.3985" stroke-miterlimit="10" d="M266.635,73.33"/>
<polyline fill="none" stroke="#000000" stroke-width="0.3985" stroke-miterlimit="10" points="266.635,51.303 266.635,64.599 
	254.729,70.056 "/>
<line fill="none" stroke="#000000" stroke-width="0.797" stroke-miterlimit="10" x1="254.729" y1="64.599" x2="254.729" y2="82.06"/>
<polyline fill="none" stroke="#000000" stroke-width="0.3985" stroke-miterlimit="10" points="254.729,76.604 266.635,82.06 
	266.635,95.355 "/>
<polygon points="258.923,78.525 259.876,76.447 263.568,80.654 257.97,80.604 "/>
<line fill="none" stroke="#000000" stroke-width="0.3985" stroke-miterlimit="10" x1="254.729" y1="73.33" x2="242.625" y2="73.33"/>
<path fill="none" stroke="#000000" stroke-width="0.3985" stroke-miterlimit="10" d="M266.635,158.17v0.199h-56.693
	 M266.635,145.896v12.473 M266.635,101.676v12.473 M266.635,95.156v6.52v0.199"/>
<rect x="260.683" y="114.149" fill="none" stroke="#000000" stroke-width="0.797" stroke-miterlimit="10" width="11.906" height="31.75"/>
<circle cx="266.635" cy="101.676" r="1.587"/>
<circle fill="none" stroke="#000000" stroke-width="0.3985" stroke-miterlimit="10" cx="266.635" cy="101.676" r="1.587"/>
<circle cx="266.635" cy="158.37" r="1.587"/>
<circle fill="none" stroke="#000000" stroke-width="0.3985" stroke-miterlimit="10" cx="266.635" cy="158.37" r="1.587"/>
<text transform="matrix(1 0 0 1 274.7908 132.168)" font-family="'ArialMT'" font-size="9.9626">10Ω</text>
<path fill="none" stroke="#000000" stroke-width="0.3985" stroke-miterlimit="10" d="M209.942,158.17v0.199 M209.942,145.896v12.473
	 M209.942,101.676v12.473 M242.824,73.33h-32.883v28.347v0.199"/>
<rect x="203.989" y="114.149" fill="none" stroke="#000000" stroke-width="0.797" stroke-miterlimit="10" width="11.906" height="31.75"/>
<circle cx="209.942" cy="158.37" r="1.587"/>
<circle fill="none" stroke="#000000" stroke-width="0.3985" stroke-miterlimit="10" cx="209.942" cy="158.37" r="1.587"/>
<text transform="matrix(1 0 0 1 218.0979 132.168)" font-family="'ArialMT'" font-size="9.9626">150Ω</text>
<path fill="none" stroke="#000000" stroke-width="0.3985" stroke-miterlimit="10" d="M209.942-11.512v-0.199h56.693v63.213
	 M209.942,0.762v-12.473 M209.942,44.982V32.51 M242.824,73.33h-32.883V44.983v-0.199"/>
<rect x="203.989" y="0.762" fill="none" stroke="#000000" stroke-width="0.797" stroke-miterlimit="10" width="11.906" height="31.748"/>
<circle cx="209.942" cy="-11.711" r="1.587"/>
<circle fill="none" stroke="#000000" stroke-width="0.3985" stroke-miterlimit="10" cx="209.942" cy="-11.711" r="1.587"/>
<text transform="matrix(1 0 0 1 218.0979 18.7822)" font-family="'ArialMT'" font-size="9.9626">100Ω</text>
<path fill="none" stroke="#000000" stroke-width="0.3985" stroke-miterlimit="10" d="M209.942-11.711"/>
<text transform="matrix(1 0 0 1 183.011 -30.9854)" font-family="'ArialMT'" font-size="9.9626">V</text>
<text transform="matrix(1 0 0 1 188.8215 -29.4922)" font-family="'ArialMT'" font-size="6.9738">C</text>
<text transform="matrix(1 0 0 1 193.3547 -29.4922)" font-family="'ArialMT'" font-size="6.9738">C</text>
<text transform="matrix(1 0 0 1 204.4929 -30.9854)" font-family="'ArialMT'" font-size="9.9626" letter-spacing="1">=</text>
<text transform="matrix(1 0 0 1 213.2 -30.9854)" font-family="'ArialMT'" font-size="9.9626">7</text>
<text transform="matrix(1 0 0 1 219.991 -30.9854)" font-family="'ArialMT'" font-size="9.9626">,</text>
<text transform="matrix(1 0 0 1 224.4187 -30.9854)" font-family="'ArialMT'" font-size="9.9626">5V</text>
<polyline fill="none" stroke="#000000" stroke-width="0.797" stroke-miterlimit="10" points="205.973,-18.061 209.942,-23.616 
	213.91,-18.061 "/>
<line fill="none" stroke="#000000" stroke-width="0.3985" stroke-miterlimit="10" x1="209.942" y1="-11.711" x2="209.942" y2="-23.616"/>
<path fill="none" stroke="#000000" stroke-width="0.3985" stroke-miterlimit="10" d="M209.942,158.37"/>
<line fill="none" stroke="#000000" stroke-width="0.3985" stroke-miterlimit="10" x1="209.942" y1="158.37" x2="209.942" y2="170.275"/>
<path fill="none" stroke="#000000" stroke-width="0.797" stroke-miterlimit="10" d="M207.461,174.244h4.96 M205.973,172.26h7.938
	 M203.989,170.275h11.906"/>
<path fill="none" stroke="#000000" stroke-width="0.3985" stroke-miterlimit="10" d="M167.621,73.33h-0.2 M184.713,73.33h-17.292
	 M209.942,73.33H192.65 M209.942,73.33h-0.198"/>
<path fill="none" stroke="#000000" stroke-width="0.797" stroke-miterlimit="10" d="M184.713,85.235V61.423 M192.65,85.235V61.423"
	/>
<circle cx="209.942" cy="73.33" r="1.587"/>
<circle fill="none" stroke="#000000" stroke-width="0.3985" stroke-miterlimit="10" cx="209.942" cy="73.33" r="1.587"/>
<circle fill="#FFFFFF" cx="167.422" cy="73.33" r="1.587"/>
<circle fill="none" stroke="#000000" stroke-width="0.3985" stroke-miterlimit="10" cx="167.422" cy="73.33" r="1.587"/>
<text transform="matrix(1 0 0 1 177.4465 96.4043)" font-family="'ArialMT'" font-size="9.9626">10</text>
<text transform="matrix(1 0 0 1 187.4099 96.4043)" font-family="'ArialMT'" font-size="9.9626">µ</text>
<text transform="matrix(1 0 0 1 193.4128 96.4043)" font-family="'ArialMT'" font-size="9.9626">F</text>
<text transform="matrix(1 0 0 1 145.033 76.7344)" font-family="'ArialMT'" font-size="9.9626">Aux</text>
<path fill="none" stroke="#000000" stroke-width="0.3985" stroke-miterlimit="10" d="M323.13,101.676h0.198 M298.951,101.676h24.377
	 M266.635,101.676h24.378 M266.635,101.676h0.199"/>
<path fill="none" stroke="#000000" stroke-width="0.797" stroke-miterlimit="10" d="M298.951,89.771v23.812 M291.014,89.771v23.812"
	/>
<text transform="matrix(1 0 0 1 283.7458 85.3643)" font-family="'ArialMT'" font-size="9.9626">47</text>
<text transform="matrix(1 0 0 1 293.7087 85.3643)" font-family="'ArialMT'" font-size="9.9626">µ</text>
<text transform="matrix(1 0 0 1 299.7117 85.3643)" font-family="'ArialMT'" font-size="9.9626">F</text>
<path fill="none" stroke="#000000" stroke-width="0.3985" stroke-miterlimit="10" d="M323.328,158.17v0.199h-56.693
	 M323.328,145.896v12.473 M323.328,101.676v12.473 M323.328,101.676v0.199"/>
<path fill="none" stroke="#000000" stroke-width="0.797" stroke-miterlimit="10" d="M329.679,122.086l9.523-4.762v25.398
	l-9.523-4.763V122.086z M317.376,145.896v-31.749h12.303v31.749H317.376z"/>
<text transform="matrix(1 0 0 1 302.9939 132.168)" font-family="'ArialMT'" font-size="9.9626">8Ω</text>
<g>
	<polyline fill="none" stroke="#000000" stroke-miterlimit="10" points="358.45,143.639 358.678,143.75 358.678,143.239 	"/>
	<path fill="none" stroke="#000000" stroke-miterlimit="10" d="M351.995,119.229c1.93,3.158,3.061,6.856,3.061,10.828
		c0,3.844-1.061,7.433-2.875,10.524"/>
	<path fill="none" stroke="#000000" stroke-miterlimit="10" d="M358.45,143.639c0.075-0.134,0.153-0.265,0.228-0.399"/>
	<path fill="none" stroke="#000000" stroke-miterlimit="10" d="M358.274,116.167c0.136,0.235,0.274,0.469,0.403,0.708"/>
	<path fill="none" stroke="#000000" stroke-miterlimit="10" d="M358.678,143.239c2.118-3.923,3.322-8.412,3.322-13.182
		s-1.204-9.26-3.322-13.182"/>
	<path fill="none" stroke="#000000" stroke-miterlimit="10" d="M355.323,142.114c2.035-3.554,3.204-7.668,3.204-12.057
		c0-4.516-1.234-8.742-3.382-12.365"/>
	<path fill="none" stroke="#000000" stroke-miterlimit="10" d="M342.56,123.832c1.3,1.738,2.078,3.888,2.078,6.225
		c0,2.208-0.69,4.251-1.862,5.936"/>
	<path fill="none" stroke="#000000" stroke-miterlimit="10" d="M349.05,139.053c1.597-2.626,2.532-5.698,2.532-8.996
		c0-3.425-1.006-6.61-2.718-9.3"/>
	<path fill="none" stroke="#000000" stroke-miterlimit="10" d="M345.919,137.525c1.381-2.158,2.19-4.716,2.19-7.469
		c0-2.88-0.877-5.555-2.377-7.772"/>
	<path fill="none" stroke="#000000" stroke-miterlimit="10" d="M339.603,134.444c0.977-1.196,1.563-2.723,1.563-4.388
		c0-1.797-0.688-3.429-1.809-4.663"/>
</g>
</svg>
