<?xml version="1.0" encoding="utf-8"?>
<!-- Generator: Adobe Illustrator 16.0.0, SVG Export Plug-In . SVG Version: 6.00 Build 0)  -->
<!DOCTYPE svg PUBLIC "-//W3C//DTD SVG 1.1//EN" "http://www.w3.org/Graphics/SVG/1.1/DTD/svg11.dtd">
<svg version="1.1" id="Ebene_1" xmlns="http://www.w3.org/2000/svg" xmlns:xlink="http://www.w3.org/1999/xlink" x="0px" y="0px"
	 width="612px" height="792px" viewBox="0 0 612 792" enable-background="new 0 0 612 792" xml:space="preserve">
<path fill="none" stroke="#000000" stroke-width="0.3985" stroke-miterlimit="10" d="M273.635,239.33"/>
<polyline fill="none" stroke="#000000" stroke-width="0.3985" stroke-miterlimit="10" points="273.635,217.303 273.635,230.599 
	261.729,236.056 "/>
<line fill="none" stroke="#000000" stroke-width="0.797" stroke-miterlimit="10" x1="261.729" y1="230.599" x2="261.729" y2="248.06"/>
<polyline fill="none" stroke="#000000" stroke-width="0.3985" stroke-miterlimit="10" points="261.729,242.604 273.635,248.06 
	273.635,261.355 "/>
<polygon points="265.923,244.525 266.876,242.447 270.568,246.654 264.97,246.604 "/>
<line fill="none" stroke="#000000" stroke-width="0.3985" stroke-miterlimit="10" x1="261.729" y1="239.33" x2="249.625" y2="239.33"/>
<path fill="none" stroke="#000000" stroke-width="0.3985" stroke-miterlimit="10" d="M273.635,324.17v0.199h-56.693
	 M273.635,311.897v12.472 M273.635,267.676v12.473 M273.635,261.156v6.52v0.199"/>
<rect x="267.683" y="280.149" fill="none" stroke="#000000" stroke-width="0.797" stroke-miterlimit="10" width="11.906" height="31.749"/>
<circle cx="273.635" cy="267.676" r="1.587"/>
<circle fill="none" stroke="#000000" stroke-width="0.3985" stroke-miterlimit="10" cx="273.635" cy="267.676" r="1.587"/>
<circle cx="273.635" cy="324.37" r="1.587"/>
<circle fill="none" stroke="#000000" stroke-width="0.3985" stroke-miterlimit="10" cx="273.635" cy="324.37" r="1.587"/>
<text transform="matrix(1 0 0 1 281.791 298.168)" font-family="'CMR10'" font-size="9.9626">10Ω</text>
<path fill="none" stroke="#000000" stroke-width="0.3985" stroke-miterlimit="10" d="M216.942,324.17v0.199 M216.942,311.897v12.472
	 M216.942,267.676v12.473 M249.824,239.33h-32.882v28.347v0.199"/>
<rect x="210.989" y="280.149" fill="none" stroke="#000000" stroke-width="0.797" stroke-miterlimit="10" width="11.906" height="31.749"/>
<circle cx="216.942" cy="324.37" r="1.587"/>
<circle fill="none" stroke="#000000" stroke-width="0.3985" stroke-miterlimit="10" cx="216.942" cy="324.37" r="1.587"/>
<text transform="matrix(1 0 0 1 225.0981 298.168)" font-family="'CMR10'" font-size="9.9626">150Ω</text>
<path fill="none" stroke="#000000" stroke-width="0.3985" stroke-miterlimit="10" d="M216.942,154.488v-0.199h56.693v63.213
	 M216.942,166.762v-12.473 M216.942,210.982V198.51 M249.824,239.33h-32.882v-28.347v-0.199"/>
<rect x="210.989" y="166.762" fill="none" stroke="#000000" stroke-width="0.797" stroke-miterlimit="10" width="11.906" height="31.748"/>
<circle cx="216.942" cy="154.289" r="1.587"/>
<circle fill="none" stroke="#000000" stroke-width="0.3985" stroke-miterlimit="10" cx="216.942" cy="154.289" r="1.587"/>
<text transform="matrix(1 0 0 1 225.0981 184.7822)" font-family="'CMR10'" font-size="9.9626">100Ω</text>
<path fill="none" stroke="#000000" stroke-width="0.3985" stroke-miterlimit="10" d="M216.942,154.289"/>
<text transform="matrix(1 0 0 1 190.0112 135.0142)" font-family="'CMMI10'" font-size="9.9626">V</text>
<text transform="matrix(1 0 0 1 195.8218 136.5078)"><tspan x="0" y="0" font-family="'CMMI7'" font-size="6.9738">C</tspan><tspan x="4.533" y="0" font-family="'CMMI7'" font-size="6.9738">C</tspan></text>
<text transform="matrix(1 0 0 1 211.4932 135.0142)"><tspan x="0" y="0" font-family="'CMR10'" font-size="9.9626" letter-spacing="2">=</tspan><tspan x="8.707" y="0" font-family="'CMR10'" font-size="9.9626">7</tspan></text>
<text transform="matrix(1 0 0 1 226.9912 135.0142)" font-family="'CMMI10'" font-size="9.9626">,</text>
<text transform="matrix(1 0 0 1 231.4189 135.0142)" font-family="'CMR10'" font-size="9.9626">5V</text>
<polyline fill="none" stroke="#000000" stroke-width="0.797" stroke-miterlimit="10" points="212.973,147.939 216.942,142.384 
	220.91,147.939 "/>
<line fill="none" stroke="#000000" stroke-width="0.3985" stroke-miterlimit="10" x1="216.942" y1="154.289" x2="216.942" y2="142.384"/>
<path fill="none" stroke="#000000" stroke-width="0.3985" stroke-miterlimit="10" d="M216.942,324.37"/>
<line fill="none" stroke="#000000" stroke-width="0.3985" stroke-miterlimit="10" x1="216.942" y1="324.37" x2="216.942" y2="336.275"/>
<path fill="none" stroke="#000000" stroke-width="0.797" stroke-miterlimit="10" d="M214.461,340.244h4.96 M212.973,338.26h7.937
	 M210.989,336.275h11.906"/>
<path fill="none" stroke="#000000" stroke-width="0.3985" stroke-miterlimit="10" d="M174.621,239.33h-0.2 M191.713,239.33h-17.292
	 M216.942,239.33H199.65 M216.942,239.33h-0.199"/>
<path fill="none" stroke="#000000" stroke-width="0.797" stroke-miterlimit="10" d="M191.713,251.235v-23.812 M199.65,251.235
	v-23.812"/>
<circle cx="216.942" cy="239.33" r="1.587"/>
<circle fill="none" stroke="#000000" stroke-width="0.3985" stroke-miterlimit="10" cx="216.942" cy="239.33" r="1.587"/>
<circle fill="#FFFFFF" cx="174.422" cy="239.33" r="1.587"/>
<circle fill="none" stroke="#000000" stroke-width="0.3985" stroke-miterlimit="10" cx="174.422" cy="239.33" r="1.587"/>
<text transform="matrix(1 0 0 1 184.4468 262.4038)" font-family="'CMR10'" font-size="9.9626">10</text>
<text transform="matrix(1 0 0 1 194.4102 262.4038)" font-family="'CMMI10'" font-size="9.9626">µ</text>
<text transform="matrix(1 0 0 1 200.4131 262.4038)" font-family="'CMR10'" font-size="9.9626">F</text>
<text transform="matrix(1 0 0 1 152.0332 242.7339)" font-family="'CMMI10'" font-size="9.9626">Aux</text>
<path fill="none" stroke="#000000" stroke-width="0.3985" stroke-miterlimit="10" d="M330.13,267.676h0.199 M305.951,267.676h24.378
	 M273.635,267.676h24.378 M273.635,267.676h0.199"/>
<path fill="none" stroke="#000000" stroke-width="0.797" stroke-miterlimit="10" d="M305.951,255.771v23.812 M298.014,255.771
	v23.812"/>
<text transform="matrix(1 0 0 1 290.7461 251.3643)" font-family="'CMR10'" font-size="9.9626">47</text>
<text transform="matrix(1 0 0 1 300.709 251.3643)" font-family="'CMMI10'" font-size="9.9626">µ</text>
<text transform="matrix(1 0 0 1 306.7119 251.3643)" font-family="'CMR10'" font-size="9.9626">F</text>
<path fill="none" stroke="#000000" stroke-width="0.3985" stroke-miterlimit="10" d="M330.329,324.17v0.199h-56.694
	 M330.329,311.897v12.472 M330.329,267.676v12.473 M330.329,267.676v0.199"/>
<path fill="none" stroke="#000000" stroke-width="0.797" stroke-miterlimit="10" d="M336.679,288.086l9.524-4.762v25.399
	l-9.524-4.763V288.086z M324.376,311.897v-31.749h12.303v31.749H324.376z"/>
<text transform="matrix(1 0 0 1 309.9941 298.168)" font-family="'CMR10'" font-size="9.9626">8Ω</text>
<text transform="matrix(1 0 0 1 303.1328 702.6348)" font-family="'CMR10'" font-size="9.9626">1</text>
<g>
	<polyline fill="none" stroke="#000000" stroke-miterlimit="10" points="365.451,309.639 365.678,309.75 365.678,309.239 	"/>
	<path fill="none" stroke="#000000" stroke-miterlimit="10" d="M358.996,285.229c1.929,3.158,3.06,6.856,3.06,10.828
		c0,3.844-1.06,7.433-2.875,10.524"/>
	<path fill="none" stroke="#000000" stroke-miterlimit="10" d="M365.451,309.639c0.075-0.134,0.153-0.265,0.227-0.4"/>
	<path fill="none" stroke="#000000" stroke-miterlimit="10" d="M365.274,282.167c0.136,0.235,0.274,0.469,0.403,0.708"/>
	<path fill="none" stroke="#000000" stroke-miterlimit="10" d="M365.678,309.239c2.118-3.922,3.322-8.412,3.322-13.182
		s-1.204-9.26-3.322-13.182"/>
	<path fill="none" stroke="#000000" stroke-miterlimit="10" d="M362.324,308.114c2.035-3.554,3.204-7.668,3.204-12.057
		c0-4.516-1.235-8.742-3.382-12.365"/>
	<path fill="none" stroke="#000000" stroke-miterlimit="10" d="M349.56,289.832c1.3,1.738,2.078,3.888,2.078,6.225
		c0,2.208-0.69,4.251-1.862,5.936"/>
	<path fill="none" stroke="#000000" stroke-miterlimit="10" d="M356.05,305.053c1.597-2.626,2.533-5.698,2.533-8.996
		c0-3.425-1.006-6.61-2.718-9.3"/>
	<path fill="none" stroke="#000000" stroke-miterlimit="10" d="M352.919,303.525c1.381-2.158,2.191-4.716,2.191-7.469
		c0-2.88-0.877-5.555-2.377-7.772"/>
	<path fill="none" stroke="#000000" stroke-miterlimit="10" d="M346.603,300.444c0.977-1.196,1.563-2.723,1.563-4.388
		c0-1.797-0.688-3.429-1.809-4.663"/>
</g>
</svg>
