<?xml version="1.0" encoding="utf-8"?>
<!-- Generator: Adobe Illustrator 16.0.0, SVG Export Plug-In . SVG Version: 6.00 Build 0)  -->
<!DOCTYPE svg PUBLIC "-//W3C//DTD SVG 1.1//EN" "http://www.w3.org/Graphics/SVG/1.1/DTD/svg11.dtd">
<svg version="1.1" id="Ebene_1" xmlns="http://www.w3.org/2000/svg" xmlns:xlink="http://www.w3.org/1999/xlink" x="0px" y="0px"
	 width="595.279px" height="841.89px" viewBox="0 0 595.279 841.89" enable-background="new 0 0 595.279 841.89"
	 xml:space="preserve">
<path fill="#00AFEF" d="M333.132,200.15l25.285,5.754l-0.313,1.474l-25.313-5.754L333.132,200.15z M329.22,200.037l4.224-1.049
	l-0.85,3.798L329.22,200.037z"/>
<path fill="#00AFEF" d="M327.292,194.77l37.275,7.739l-0.312,1.474l-37.276-7.739L327.292,194.77z M323.38,194.713l4.224-1.106
	l-0.794,3.827L323.38,194.713z"/>
<path fill="#00AFEF" d="M325.701,190.01l43.654,9.298l-0.312,1.474l-43.654-9.326L325.701,190.01z M321.789,189.925l4.195-1.077
	l-0.794,3.798L321.789,189.925z"/>
<path fill="#00AFEF" d="M323.581,185.7l52.696,10.942l-0.283,1.474l-52.724-10.942L323.581,185.7L323.581,185.7z M319.642,185.671
	l4.224-1.106l-0.794,3.798L319.642,185.671z"/>
<path fill="#00AFEF" d="M325.701,181.98l54.851,11.48l-0.313,1.474l-54.85-11.48L325.701,181.98z M321.789,181.924l4.195-1.105
	l-0.794,3.827L321.789,181.924z"/>
<path fill="#00AFEF" d="M331.572,179.38l53.773,11.962l-0.313,1.446l-53.802-11.934L331.572,179.38z M327.631,179.267l4.224-1.049
	l-0.822,3.798L327.631,179.267L327.631,179.267z"/>
<path fill="#00AFEF" d="M335.822,175.69l54.879,12.983l-0.34,1.446l-54.879-12.954L335.822,175.69z M331.91,175.549l4.225-1.02
	l-0.879,3.798L331.91,175.549z"/>
<path fill="#00AFEF" d="M344.352,173.99l51.646,10.941l-0.312,1.474l-51.647-10.942L344.352,173.99z M340.44,173.933l4.195-1.106
	l-0.794,3.827L340.44,173.933z"/>
<path fill="#00AFEF" d="M357.682,172.46l43.143,9.808l-0.34,1.474l-43.143-9.808L357.682,172.46z M353.77,172.346l4.224-1.049
	l-0.879,3.798L353.77,172.346z"/>
<path fill="#373435" d="M415.022,176.8L65.932,374.66l-0.992-1.729l349.09-197.86L415.022,176.8L415.022,176.8z M424.632,170.223
	l-7.625,11.367l-6.038-10.658L424.632,170.223z"/>
<path fill="#ED3237" d="M255.632,254.75v11.395h-2.013V254.75H255.632z M254.64,249.619l2.58,5.187h-5.187L254.64,249.619
	L254.64,249.619z"/>
<path fill="#ED3237" d="M269.602,267.39v-11.395h2.014v11.395H269.602z M270.623,272.521l-2.608-5.187h5.188L270.623,272.521z"/>
<path fill="#ED3237" d="M278.142,277v-25.795h2.013V277H278.142z M279.135,282.102l-2.58-5.187h5.188L279.135,282.102
	L279.135,282.102z"/>
<path fill="#ED3237" d="M285.082,284.46v-35.377h1.983v35.376L285.082,284.46L285.082,284.46z M286.074,289.59l-2.608-5.187h5.187
	L286.074,289.59z"/>
<path fill="#ED3237" d="M293.582,290.86v-46.573h2.013v46.573H293.582z M294.603,295.962l-2.607-5.187h5.187L294.603,295.962z"/>
<path fill="#ED3237" d="M302.662,295.65v-55.105h2.013v55.105H302.662z M303.654,300.752l-2.579-5.187h5.187L303.654,300.752
	L303.654,300.752z"/>
<path fill="#ED3237" d="M312.241,297.78v-63.1h2.014v63.099h-2.014V297.78z M313.263,302.91l-2.608-5.187h5.188L313.263,302.91z"/>
<path fill="#ED3237" d="M320.232,288.71v-58.819h2.013v58.819H320.232z M321.252,293.84l-2.608-5.187h5.187L321.252,293.84z"/>
<path fill="#ED3237" d="M329.302,277.54v-52.441h2.013v52.441H329.302z M330.294,282.643l-2.58-5.187h5.187L330.294,282.643
	L330.294,282.643z"/>
<path fill="#ED3237" d="M336.762,265.8v-47.112h2.013V265.8H336.762z M337.754,270.93l-2.58-5.187h5.187L337.754,270.93
	L337.754,270.93z"/>
<path fill="#ED3237" d="M343.701,247.15v-31.124h1.984v31.124H343.701z M344.694,252.28l-2.607-5.188h5.187L344.694,252.28z"/>
<path fill="#ED3237" d="M349.031,221.05v-8.192h1.984v8.192H349.031z M350.024,226.152l-2.607-5.187h5.187L350.024,226.152z"/>
<path fill="#00AFEF" d="M127.022,321.82l19.672,4.649l-0.453,1.928l-19.673-4.62L127.022,321.82L127.022,321.82z M121.807,321.622
	l5.642-1.332l-1.191,5.046L121.807,321.622z"/>
<path fill="#00AFEF" d="M118.462,311.16l38.381,8.901l-0.454,1.928l-38.381-8.901L118.462,311.16L118.462,311.16z M113.246,310.962
	l5.641-1.361l-1.162,5.074L113.246,310.962z"/>
<path fill="#00AFEF" d="M113.842,302l53.065,12.189l-0.426,1.956l-53.093-12.189L113.842,302z M108.627,301.83l5.641-1.361
	l-1.162,5.046L108.627,301.83z"/>
<path fill="#00AFEF" d="M111.682,293.44l65.339,14.343l-0.425,1.956l-65.339-14.343L111.682,293.44z M106.466,293.298l5.641-1.417
	l-1.105,5.074L106.466,293.298z"/>
<path fill="#00AFEF" d="M114.352,286.98l73.871,15.477l-0.425,1.956l-73.843-15.477L114.352,286.98z M109.136,286.923l5.613-1.474
	l-1.049,5.074L109.136,286.923z"/>
<path fill="#00AFEF" d="M121.832,279.58l76.507,17.008l-0.425,1.956l-76.535-17.008L121.832,279.58z M116.616,279.467l5.612-1.417
	l-1.134,5.074L116.616,279.467z"/>
<path fill="#00AFEF" d="M133.542,274.34l74.409,17.461l-0.454,1.956l-74.409-17.49L133.542,274.34z M128.326,274.142l5.641-1.361
	l-1.191,5.074L128.326,274.142L128.326,274.142z"/>
<path fill="#00AFEF" d="M146.322,269.97l71.745,15.42l-0.425,1.984l-71.717-15.449L146.322,269.97L146.322,269.97z M141.107,269.856
	l5.642-1.446l-1.106,5.074L141.107,269.856z"/>
<path fill="#00AFEF" d="M161.802,266.77l64.8,13.833l-0.425,1.956l-64.8-13.833L161.802,266.77z M156.586,266.657l5.613-1.446
	l-1.077,5.074L156.586,266.657L156.586,266.657z"/>
<path fill="#00AFEF" d="M183.632,264.08l53.093,11.197l-0.425,1.956l-53.065-11.197L183.632,264.08z M178.417,263.995l5.612-1.446
	l-1.049,5.074L178.417,263.995L178.417,263.995z"/>
<path fill="#00AFEF" d="M211.352,262.54l32.825,7.398l-0.425,1.956l-32.825-7.398L211.352,262.54z M206.136,262.398l5.641-1.389
	l-1.134,5.074L206.136,262.398z"/>
<path fill="#00AFEF" d="M238.542,261.52l15.789,3.628l-0.454,1.956l-15.789-3.657L238.542,261.52L238.542,261.52z M233.327,261.322
	l5.641-1.361l-1.162,5.074L233.327,261.322z"/>
<path fill="#00AFEF" d="M281.912,261.72l-11.51-2.608l0.426-1.956l11.536,2.608L281.912,261.72L281.912,261.72z M287.127,261.862
	l-5.642,1.389l1.162-5.046L287.127,261.862L287.127,261.862z"/>
<path fill="#00AFEF" d="M359.182,219.91l-14.117-2.353l0.313-1.984l14.145,2.353L359.182,219.91z M364.398,219.768l-5.528,1.701
	l0.851-5.102L364.398,219.768z"/>
<path fill="#00AFEF" d="M305.352,260.05l-26.447-6.265l0.482-1.956l26.447,6.293L305.352,260.05L305.352,260.05z M310.568,260.277
	l-5.641,1.332l1.191-5.074L310.568,260.277L310.568,260.277z"/>
<path fill="#00AFEF" d="M365.581,227.11l-26.956-5.839l0.396-1.956l26.986,5.839L365.581,227.11z M370.798,227.223l-5.613,1.446
	l1.077-5.074L370.798,227.223z"/>
<path fill="#00AFEF" d="M324.542,259.06l-37.616-8.476l0.425-1.956l37.644,8.476L324.542,259.06z M329.757,259.202l-5.613,1.389
	l1.134-5.046L329.757,259.202z"/>
<path fill="#00AFEF" d="M368.792,234.03l-38.693-8.476l0.425-1.956l38.693,8.476L368.792,234.03z M374.008,234.172l-5.642,1.417
	l1.105-5.074L374.008,234.172L374.008,234.172z"/>
<path fill="#00AFEF" d="M339.991,255.26l-44.561-10.545l0.454-1.928l44.589,10.545L339.991,255.26z M345.207,255.487l-5.641,1.304
	l1.191-5.046L345.207,255.487L345.207,255.487z"/>
<path fill="#00AFEF" d="M371.451,242.56l-50.967-11.169l0.425-1.928l50.968,11.14L371.451,242.56z M376.668,242.673l-5.642,1.446
	l1.106-5.074L376.668,242.673z"/>
<path fill="#00AFEF" d="M354.932,251.58l-51.506-11.65l0.454-1.956l51.477,11.679L354.932,251.58z M360.148,251.75l-5.641,1.389
	l1.134-5.074L360.148,251.75z"/>
<path fill="#00AFEF" d="M345.322,207.33l9.609,1.587l-0.228,1.474l-9.608-1.587L345.322,207.33z M341.409,207.443l4.167-1.276
	l-0.624,3.827L341.409,207.443z"/>
<path fill="#00AFEF" d="M365.052,247.35l-52.555-11.679l0.426-1.956l52.554,11.679L365.052,247.35z M370.267,247.492l-5.641,1.389
	l1.134-5.046L370.267,247.492z"/>
<line fill="none" stroke="#00AFEF" stroke-width="5" x1="66.511" y1="315.82" x2="240.752" y2="361.11"/>
<line fill="none" stroke="#373435" x1="207.722" y1="182.47" x2="207.722" y2="200.04"/>
<path fill="#373435" d="M215.492,189.18l71.234-32.145l0.822,1.814l-71.235,32.145L215.492,189.18L215.492,189.18z M218.808,194.509
	l-10.828-0.85l6.521-8.674L218.808,194.509z"/>
<path fill="#373435" d="M383.581,116.45l-67.775,31.209l-0.851-1.814l67.776-31.209L383.581,116.45z M380.237,111.149l10.8,0.765
	l-6.435,8.731L380.237,111.149z"/>
<line fill="none" stroke="#373435" x1="391.581" y1="104.12" x2="391.581" y2="122.26"/>
<path fill="#ED3237" d="M403.002,136.74v46.8H401.5v-46.8H403.002z M402.236,132.914l1.956,3.883h-3.883L402.236,132.914z"/>
<path fill="#ED3237" d="M397.672,130.36v54.765h-1.502V130.36H397.672z M396.906,126.505l1.956,3.912h-3.883L396.906,126.505z"/>
<path fill="#ED3237" d="M392.882,128.24v60.094h-1.502V128.24H392.882z M392.116,124.385l1.956,3.883h-3.912L392.116,124.385z"/>
<path fill="#ED3237" d="M387.552,130.9v60.094h-1.502V130.9H387.552z M386.785,127.045l1.956,3.883h-3.912L386.785,127.045z"/>
<path fill="#ED3237" d="M376.902,145.81v53.178H375.4V145.81H376.902z M376.136,141.955l1.956,3.912h-3.912L376.136,141.955z"/>
<path fill="#ED3237" d="M381.682,136.23v58.479h-1.502V136.23H381.682z M380.916,132.375l1.956,3.883h-3.883L380.916,132.375z"/>
<path fill="#ED3237" d="M371.031,159.14v42.52h-1.502v-42.52H371.031z M370.266,155.285l1.956,3.912h-3.883L370.266,155.285z"/>
<path fill="#ED3237" d="M366.241,176.71v26.532h-1.502V176.71H366.241z M365.477,172.883l1.956,3.883h-3.912L365.477,172.883z"/>
<path fill="#ED3237" d="M360.911,190.04v16.413h-1.502V190.04H360.911z M360.147,186.213l1.956,3.883h-3.912L360.147,186.213z"/>
<path fill="#ED3237" d="M355.042,199.64v9.468h-1.503v-9.468H355.042z M354.277,195.785l1.956,3.912h-3.883L354.277,195.785z"/>
<path fill="#ED3237" d="M146.922,314.96v13.521h-2.013V314.96H146.922z M145.901,309.83l2.608,5.187h-5.188L145.901,309.83z"/>
<path fill="#ED3237" d="M158.632,291.52v29.509h-1.984V291.52H158.632z M157.64,286.389l2.608,5.187h-5.188L157.64,286.389z"/>
<path fill="#ED3237" d="M169.282,265.41v48.699h-1.984V265.41H169.282z M168.29,260.279l2.607,5.187h-5.187L168.29,260.279z"/>
<path fill="#ED3237" d="M179.432,247.27v61.512h-2.013V247.27H179.432z M178.412,242.168l2.607,5.187h-5.187L178.412,242.168z"/>
<path fill="#ED3237" d="M189.012,230.23v73.729h-2.013V230.23H189.012z M188.02,225.099l2.58,5.187h-5.187L188.02,225.099z"/>
<path fill="#ED3237" d="M199.132,219.03v79.597h-1.984V219.03H199.132z M198.14,213.899l2.58,5.187h-5.187L198.14,213.899z"/>
<path fill="#ED3237" d="M210.332,209.96v83.339h-2.014V209.96H210.332z M209.34,204.858l2.58,5.187h-5.188L209.34,204.858z"/>
<path fill="#ED3237" d="M219.402,215.29v72.17h-2.013v-72.17H219.402z M218.381,210.188l2.607,5.187h-5.187L218.381,210.188z"/>
<path fill="#ED3237" d="M227.912,221.7v60.435h-1.984V221.7H227.912z M226.919,216.569l2.607,5.187h-5.187L226.919,216.569z"/>
<path fill="#ED3237" d="M237.522,230.77v46.035h-2.013V230.77H237.522z M236.501,225.639l2.607,5.187h-5.187L236.501,225.639z"/>
<path fill="#ED3237" d="M247.642,241.94v29.537h-2.013V241.94H247.642z M246.65,236.838l2.58,5.187h-5.187L246.65,236.838z"/>
<line fill="none" stroke="#ED3237" stroke-width="5" x1="135.612" y1="378.06" x2="135.612" y2="211.78"/>
<path fill="#373435" d="M303.932,147.71l-7.172,14.854h-3.77l9.723-20.069l-0.369-1.871c-0.425-2.013-0.992-3.373-1.729-4.11
	c-0.71-0.737-1.503-1.077-2.382-1.077c-0.794,0-1.474,0.283-2.068,0.85c-0.596,0.567-0.992,1.502-1.191,2.806h-0.765
	c0.027-2.211,0.595-3.997,1.644-5.301c0.737-0.964,1.672-1.446,2.75-1.446c0.936,0,1.757,0.368,2.438,1.106
	c1.02,1.162,1.871,3.175,2.522,6.066l3.373,14.995c0.51,2.239,1.106,3.713,1.757,4.365c0.624,0.68,1.389,1.02,2.239,1.02
	c0.822,0,1.502-0.283,2.013-0.822c0.539-0.539,0.851-1.446,0.964-2.665h0.822c0.028,0.369,0.028,0.652,0.028,0.85
	c0,1.843-0.454,3.317-1.39,4.45c-0.68,0.85-1.587,1.276-2.692,1.276c-0.992,0-1.899-0.425-2.665-1.247
	c-0.794-0.85-1.531-2.75-2.211-5.754L303.932,147.71L303.932,147.71z"/>
</svg>
