<?xml version="1.0" encoding="utf-8"?>
<!-- Generator: Adobe Illustrator 16.0.0, SVG Export Plug-In . SVG Version: 6.00 Build 0)  -->
<!DOCTYPE svg PUBLIC "-//W3C//DTD SVG 1.1//EN" "http://www.w3.org/Graphics/SVG/1.1/DTD/svg11.dtd">
<svg version="1.1" id="Ebene_1" xmlns="http://www.w3.org/2000/svg" xmlns:xlink="http://www.w3.org/1999/xlink" x="0px" y="0px"
	 width="283.46px" height="283.46px" viewBox="0 0 283.46 283.46" enable-background="new 0 0 283.46 283.46" xml:space="preserve">
<rect x="97.5" y="52.5" fill="none" stroke="#000000" stroke-miterlimit="10" width="39" height="110"/>
<rect x="136.5" y="52.5" fill="none" stroke="#000000" stroke-miterlimit="10" width="16" height="110"/>
<rect x="152.5" y="52.5" fill="none" stroke="#000000" stroke-miterlimit="10" width="38" height="110"/>
<line fill="none" stroke="#000000" stroke-miterlimit="10" x1="98" y1="105.5" x2="64" y2="105.5"/>
<line fill="none" stroke="#000000" stroke-miterlimit="10" x1="64" y1="105.5" x2="63.189" y2="225.601"/>
<line fill="none" stroke="#000000" stroke-miterlimit="10" x1="63.189" y1="225.601" x2="140.15" y2="225.172"/>
<line fill="none" stroke="#000000" stroke-miterlimit="10" x1="223.704" y1="224.313" x2="224.133" y2="108.004"/>
<line fill="none" stroke="#000000" stroke-miterlimit="10" x1="224" y1="108.5" x2="191" y2="108.5"/>
<line fill="none" stroke="#000000" stroke-miterlimit="10" x1="145.25" y1="224.75" x2="223.704" y2="224.313"/>
<line fill="none" stroke="#000000" stroke-miterlimit="10" x1="145.5" y1="211" x2="145.25" y2="234.25"/>
<line fill="none" stroke="#000000" stroke-miterlimit="10" x1="140.5" y1="220" x2="140.5" y2="231"/>
<rect x="117" y="144" fill="none" stroke="#000000" stroke-miterlimit="10" width="0" height="0"/>
<g>
	<circle fill="none" stroke="#000000" stroke-miterlimit="10" cx="126.875" cy="128.875" r="2.875"/>
	<line fill="none" stroke="#000000" stroke-miterlimit="10" x1="125.842" y1="128.984" x2="127.842" y2="128.984"/>
</g>
<g>
	<circle fill="none" stroke="#000000" stroke-miterlimit="10" cx="123.875" cy="97.875" r="2.875"/>
	<line fill="none" stroke="#000000" stroke-miterlimit="10" x1="122.842" y1="97.984" x2="124.842" y2="97.984"/>
</g>
<g>
	<circle fill="none" stroke="#000000" stroke-miterlimit="10" cx="120.875" cy="64.875" r="2.875"/>
	<line fill="none" stroke="#000000" stroke-miterlimit="10" x1="119.842" y1="64.984" x2="121.842" y2="64.984"/>
</g>
<g>
	<circle fill="none" stroke="#000000" stroke-miterlimit="10" cx="113.875" cy="146.875" r="2.875"/>
	<line fill="none" stroke="#000000" stroke-miterlimit="10" x1="112.842" y1="146.984" x2="114.842" y2="146.984"/>
</g>
<g>
	<circle fill="none" stroke="#000000" stroke-miterlimit="10" cx="109.875" cy="116.875" r="2.875"/>
	<line fill="none" stroke="#000000" stroke-miterlimit="10" x1="108.842" y1="116.984" x2="110.842" y2="116.984"/>
</g>
<g>
	<circle fill="none" stroke="#000000" stroke-miterlimit="10" cx="106.875" cy="81.875" r="2.875"/>
	<line fill="none" stroke="#000000" stroke-miterlimit="10" x1="105.842" y1="81.984" x2="107.842" y2="81.984"/>
</g>
<g>
	<circle fill="none" stroke="#000000" stroke-miterlimit="10" cx="178.875" cy="66.875" r="2.875"/>
	<line fill="none" stroke="#000000" stroke-miterlimit="10" x1="177.842" y1="66.984" x2="179.842" y2="66.984"/>
</g>
<g>
	<circle fill="none" stroke="#000000" stroke-miterlimit="10" cx="162.875" cy="85.875" r="2.875"/>
	<line fill="none" stroke="#000000" stroke-miterlimit="10" x1="161.842" y1="85.984" x2="163.842" y2="85.984"/>
</g>
<g>
	<circle fill="none" stroke="#000000" stroke-miterlimit="10" cx="178.875" cy="102.875" r="2.875"/>
	<line fill="none" stroke="#000000" stroke-miterlimit="10" x1="177.842" y1="102.984" x2="179.842" y2="102.984"/>
</g>
<g>
	<circle fill="none" stroke="#000000" stroke-miterlimit="10" cx="162.875" cy="118.875" r="2.875"/>
	<line fill="none" stroke="#000000" stroke-miterlimit="10" x1="161.842" y1="118.984" x2="163.842" y2="118.984"/>
</g>
<g>
	<circle fill="none" stroke="#000000" stroke-miterlimit="10" cx="179.875" cy="132.875" r="2.875"/>
	<line fill="none" stroke="#000000" stroke-miterlimit="10" x1="178.842" y1="132.984" x2="180.842" y2="132.984"/>
</g>
<g>
	<circle fill="none" stroke="#000000" stroke-miterlimit="10" cx="167.875" cy="149.875" r="2.875"/>
	<line fill="none" stroke="#000000" stroke-miterlimit="10" x1="166.842" y1="149.984" x2="168.842" y2="149.984"/>
</g>
<circle fill="none" stroke="#FF0000" stroke-miterlimit="10" cx="143.875" cy="106.875" r="2.875"/>
<circle fill="none" stroke="#FF0000" stroke-miterlimit="10" cx="142.875" cy="62.875" r="2.875"/>
<circle fill="none" stroke="#FF0000" stroke-miterlimit="10" cx="144.875" cy="84.875" r="2.875"/>
<circle fill="none" stroke="#FF0000" stroke-miterlimit="10" cx="142.875" cy="130.875" r="2.875"/>
<circle fill="none" stroke="#FF0000" stroke-miterlimit="10" cx="144.875" cy="152.875" r="2.875"/>
<line fill="none" stroke="#000000" stroke-miterlimit="10" x1="143.5" y1="52" x2="143.5" y2="26"/>
<circle fill="none" stroke="#000000" stroke-miterlimit="10" cx="143.542" cy="23.542" r="2.875"/>
</svg>
